/* XPM */
static char *noname[] = {
/* width height ncolors chars_per_pixel */
"32 32 43 1",
/* colors */
"  c #000000",
". c #BF0000",
"X c #F80000",
"o c #D00000",
"O c #E10000",
"+ c #470000",
"@ c #B90000",
"# c #0B0000",
"$ c #7D0000",
"% c #EF0000",
"& c #410000",
"* c #2D0000",
"= c #190000",
"- c #D80000",
"; c #C40000",
": c #FD0000",
"> c #020000",
", c #FA0000",
"< c #BB0000",
"1 c #1E0000",
"2 c #570000",
"3 c #FF0000",
"4 c #760000",
"5 c #150000",
"6 c #F90000",
"7 c #4B0000",
"8 c #840000",
"9 c #E20000",
"0 c #0F0000",
"q c #CE0000",
"w c #FFFFFF",
"e c #F00000",
"r c #090000",
"t c #7B0000",
"y c #1A0000",
"u c #530000",
"i c #2B0000",
"p c #EA0000",
"a c #500000",
"s c #C20000",
"d c #3C0000",
"f c #FB0000",
"g c None",
/* pixels */
"wwwwwwwwwwwwwwwwwwww333333wwwwww",
"wwwwwwwwwwwwwwwwwwww3333333wwwww",
"w                   $33339>     ",
"                    ;33334      ",
"                   &3333X5      ",
"    3333wwwwwwwwwww333333wwww   ",
"   =333333wwwwwwww3333333wwww   ",
"   @3333333wwwwww3333333wwwww   ",
"  #,333333333www3333333wwwwww   ",
"  733333333333ww3333333wwwwww   ",
"  u3333333333333333333wwwwwww   ",
"  1s33333333333333333wwwwwwww   ",
"    3333333333333333wwwwwwwww   ",
"    ww3333333333333wwwwwwwwww   ",
"    wwwww3333333333wwwwwwwwww   ",
"    wwwwww3333333333wwwwwwwww   ",
"    wwwww333333333333wwwwwwww   ",
"    wwww33333333333333wwwwwww   ",
"    www3333333333333333wwwwww   ",
"    ww3333333www33333333wwwww   ",
"    w3333333wwwww3333333wwwww   ",
"    333333wwwwwwww3333333wwww   ",
"   d33333wwwwwwwwww3333333www   ",
"  ie3333wwwwwwwwwwww3333333ww   ",
" 1p3333wwwwwwwwwwwwww333333ww   ",
"0.3%3wwwwwwwwwwwwwwwww333333w   ",
"q3<y                   a633Or   ",
"et>                     +,338   ",
"3                        2:3f*  ",
"w                         o33- w",
"wwwwwwwwwwwwwwwwwwwwwwwwwww333ww",
"wwwwwwwwwwwwwwwwwwwwwwwwwwww33ww"
};
