<?xml version="1.0" encoding="UTF-8" standalone="no"?>
<!-- Created with Inkscape (http://www.inkscape.org/) -->

<svg
   xmlns:dc="http://purl.org/dc/elements/1.1/"
   xmlns:cc="http://creativecommons.org/ns#"
   xmlns:rdf="http://www.w3.org/1999/02/22-rdf-syntax-ns#"
   xmlns:svg="http://www.w3.org/2000/svg"
   xmlns="http://www.w3.org/2000/svg"
   xmlns:sodipodi="http://sodipodi.sourceforge.net/DTD/sodipodi-0.dtd"
   xmlns:inkscape="http://www.inkscape.org/namespaces/inkscape"
   width="180.35962"
   height="168.8224"
   id="svg3026"
   version="1.1"
   inkscape:version="0.47 r22583"
   sodipodi:docname="Nouveau document 9.2010_07_06_23_34_22.0.svg">
  <defs
     id="defs3028">
    <inkscape:perspective
       sodipodi:type="inkscape:persp3d"
       inkscape:vp_x="0 : 526.18109 : 1"
       inkscape:vp_y="0 : 1000 : 0"
       inkscape:vp_z="744.09448 : 526.18109 : 1"
       inkscape:persp3d-origin="372.04724 : 350.78739 : 1"
       id="perspective3034" />
    <inkscape:perspective
       id="perspective3058"
       inkscape:persp3d-origin="0.5 : 0.33333333 : 1"
       inkscape:vp_z="1 : 0.5 : 1"
       inkscape:vp_y="0 : 1000 : 0"
       inkscape:vp_x="0 : 0.5 : 1"
       sodipodi:type="inkscape:persp3d" />
  </defs>
  <sodipodi:namedview
     id="base"
     pagecolor="#ffffff"
     bordercolor="#666666"
     borderopacity="1.0"
     inkscape:pageopacity="0.0"
     inkscape:pageshadow="2"
     inkscape:zoom="1.4"
     inkscape:cx="130.5846"
     inkscape:cy="138.25517"
     inkscape:document-units="px"
     inkscape:current-layer="layer1"
     showgrid="false"
     inkscape:window-width="869"
     inkscape:window-height="831"
     inkscape:window-x="0"
     inkscape:window-y="0"
     inkscape:window-maximized="0" />
  <metadata
     id="metadata3031">
    <rdf:RDF>
      <cc:Work
         rdf:about="">
        <dc:format>image/svg+xml</dc:format>
        <dc:type
           rdf:resource="http://purl.org/dc/dcmitype/StillImage" />
        <dc:title></dc:title>
      </cc:Work>
    </rdf:RDF>
  </metadata>
  <g
     inkscape:label="Calque 1"
     inkscape:groupmode="layer"
     id="layer1"
     transform="translate(-53.277365,-210.69736)">
    <path
       style="fill:#e00000;fill-opacity:1;stroke:#e00000;stroke-width:3.41225314;stroke-linecap:round;stroke-linejoin:round;stroke-miterlimit:4;stroke-opacity:1;stroke-dasharray:none;stroke-dashoffset:0"
       d="m 74.926079,237.63756 c 2.247983,-8.0712 -0.966998,-18.26812 3.363983,-25.23407 10.155347,14.80236 25.771108,10.51496 37.355438,16.63887 -0.51793,8.9497 -3.46147,17.39942 -5.17083,25.93104 -3.22359,8.54564 -9.0952,16.70004 -7.74621,27.14411 -1.16164,9.70089 -4.92913,22.72832 -13.698643,20.86154 -8.064337,1.24931 -15.292452,-8.21399 -13.45649,-19.59501 2.925468,-20.9239 24.229317,-19.73804 35.960463,-16.98005 4.50665,1.6065 9.51899,3.74545 13.97899,0.72953 5.43966,1.65764 6.87468,-12.94506 10.47883,-10.12696 1.56473,8.59521 -3.1268,18.69113 6.18174,21.60383 20.93036,-0.0154 4.47207,-19.85522 -5.03447,-26.34196 8.07513,13.99901 17.63999,2.68028 24.35395,-5.33126 3.57214,9.35244 9.45755,25.75803 11.5328,35.8359 0.37911,11.8499 0.0626,17.65188 -2.06794,29.49447 -2.97265,10.70892 -16.5587,6.68694 -14.30574,-5.5287 0.87296,-8.57083 2.08715,-17.13744 3.56515,-25.54544 3.0697,-13.73799 12.25921,-22.83633 21.91409,-26.61239 2.88797,-0.82143 8.21801,-8.30813 5.77515,0.72759 -0.77169,8.67381 -2.21384,19.8904 2.24971,26.94546 5.11392,4.80208 14.26684,0.50511 9.94764,-9.3707 -1.41389,-5.87954 -7.54692,-13.73626 -7.85563,-16.82488 6.63089,6.40593 11.8168,-14.14918 17.69925,-16.642 1.672,-3.0819 7.60107,4.25656 3.28096,8.50315 -6.69016,3.05351 -11.70987,14.63009 -19.21536,12.83759 -3.85597,-0.17268 -4.97637,-10.29599 -0.50678,-5.9454 4.16455,7.69283 10.26071,16.14462 9.41838,26.46449 -1.97538,8.80971 -13.5196,8.60313 -17.65546,4.65136 -4.04508,-7.76713 -0.14558,-20.29839 0.0165,-29.34568 -1.15193,-5.122 7.05756,-9.85822 3.51374,-3.2364 -11.14475,7.34677 -22.44648,10.74711 -28.51688,27.28601 -3.04409,9.0015 -4.88047,19.67765 -2.65299,29.382 18.05886,23.54828 10.09146,-28.67703 9.02117,-36.93916 -1.42502,-6.72529 -5.1942,-18.4579 -5.50119,-22.33817 -1.29496,6.4768 -7.09554,8.41923 -11.40518,9.26427 -4.81394,0.22901 -12.24885,4.30112 -13.84141,-4.99143 -1.02393,-11.77571 8.9956,-0.44096 11.48409,3.29542 20.1093,26.71573 -18.34939,48.68417 -12.18349,-0.18652 -0.5806,6.73275 -4.79531,10.35001 -9.13057,11.93331 -5.81691,2.69339 -11.87617,0.48191 -17.57458,-1.47464 -39.152694,-9.27194 -25.863801,59.14419 -4.63655,-4.17888 3.18035,-6.11679 10.51439,-28.18801 10.04006,-35.52944 -6.99809,5.80135 -15.383358,1.21994 -21.889613,-3.70203 -5.044928,-3.52373 -9.928332,-7.48727 -14.627967,-11.8294 2.854757,7.34861 -0.283269,16.69669 -0.680679,24.16386 -0.489677,0.6503 -1.252207,0.63478 -1.777392,0.13677 z"
       id="path3038"
       sodipodi:nodetypes="cccccccccccccccccccccccccccccccccccccccccccccc" />
    <path
       sodipodi:type="arc"
       style="fill:#e00000;fill-opacity:1;stroke:#e00000;stroke-width:4;stroke-linecap:round;stroke-linejoin:round;stroke-miterlimit:4;stroke-opacity:1;stroke-dasharray:none;stroke-dashoffset:0"
       id="path3044"
       sodipodi:cx="196.97975"
       sodipodi:cy="232.6234"
       sodipodi:rx="5.7142859"
       sodipodi:ry="6.4285712"
       d="m 202.69404,232.6234 c 0,3.5504 -2.55838,6.42857 -5.71429,6.42857 -3.15591,0 -5.71428,-2.87817 -5.71428,-6.42857 0,-3.5504 2.55837,-6.42857 5.71428,-6.42857 3.15591,0 5.71429,2.87817 5.71429,6.42857 z"
       transform="matrix(0.72512644,0,0,1.0035725,14.83008,-3.08125)" />
    <path
       style="font-size:84px;font-style:normal;font-variant:normal;font-weight:bold;font-stretch:normal;text-align:start;line-height:125%;writing-mode:lr-tb;text-anchor:start;fill:#000000;fill-opacity:1;stroke:none;font-family:FreeMono;-inkscape-font-specification:FreeMono Bold"
       d="m 182.06237,310.14782 0,8.84398 7.25126,0 0,-8.84398 -7.25126,0 z m -75.48114,3.38706 c -1.29944,5e-5 -2.30084,0.29134 -2.99114,0.90949 -0.69034,0.56205 -1.01973,1.66322 -1.01971,3.29297 -2e-5,2.81004 1.33077,4.2025 4.01085,4.20246 l 7.25127,0 0,24.02301 c -2e-5,1.91082 -0.0869,3.25234 -0.24926,3.98293 -0.16245,0.73061 -0.57396,1.54702 -1.22365,2.44621 -1.54309,2.02321 -3.46377,3.04209 -5.77836,3.04208 -1.94915,10e-6 -4.33608,-0.89217 -7.137959,-2.63438 l 0,-8.0913 c -7e-6,-1.79838 -0.183101,-3.18432 -0.589165,-4.13974 -0.406078,-1.01158 -1.229097,-1.50534 -2.447302,-1.50536 -2.030361,2e-5 -3.036467,1.87971 -3.036467,5.6451 l 0,13.67367 c 5.319521,3.65301 9.686583,5.45693 13.097593,5.45693 3.81705,0 7.00434,-1.55052 9.56261,-4.64152 2.59882,-3.1472 3.89752,-7.23575 3.89755,-12.29377 l 0,-24.96386 3.46701,0 c 2.68004,4e-5 4.01082,-1.39242 4.01086,-4.20246 -4e-5,-2.80995 -1.33082,-4.20241 -4.01086,-4.20246 l -16.81387,0 z m 38.47703,11.1961 c -4.5074,4e-5 -8.28458,1.87974 -11.3301,5.6451 -3.04554,3.76543 -4.57736,8.4235 -4.57736,13.98729 0,5.50762 1.53182,10.19706 4.57736,14.01865 3.04552,3.76541 6.76324,5.6451 11.14881,5.6451 4.38555,0 8.10326,-1.87969 11.14882,-5.6451 3.04551,-3.82159 4.55467,-8.51103 4.5547,-14.01865 -3e-5,-5.45139 -1.50919,-10.07157 -4.5547,-13.89321 -3.00495,-3.82156 -6.6632,-5.73914 -10.96753,-5.73918 z m 73.03383,0 c -4.50741,4e-5 -8.28458,1.87974 -11.33011,5.6451 -3.04553,3.76543 -4.5547,8.4235 -4.5547,13.98729 0,5.50762 1.50917,10.19706 4.5547,14.01865 3.04553,3.76541 6.76324,5.6451 11.14882,5.6451 4.38555,0 8.10326,-1.87969 11.14882,-5.6451 3.0455,-3.82159 4.57733,-8.51103 4.57736,-14.01865 -3e-5,-5.45139 -1.53186,-10.07157 -4.57736,-13.89321 -3.00495,-3.82156 -6.66321,-5.73914 -10.96753,-5.73918 z m -43.64355,1.09766 c -1.29944,4e-5 -2.30084,0.32269 -2.99115,0.94085 -0.69033,0.56204 -1.01972,1.63184 -1.01971,3.26161 -1e-5,2.81003 1.33078,4.23385 4.01086,4.23382 l 12.30449,0 0,30.07581 c -2e-5,2.13561 -0.50308,3.80629 -1.51824,4.98651 -1.0152,1.18019 -2.4281,1.75624 -4.21479,1.75625 l -6.75274,0 c -1.25883,-10e-6 -2.26023,0.28475 -2.99115,0.84676 -0.69033,0.61819 -1.04238,1.75725 -1.04237,3.38706 -1e-5,2.80998 1.35344,4.20244 4.03352,4.20246 l 6.93402,0 c 3.32976,-2e-5 6.10083,-1.43036 8.29363,-4.29655 2.23336,-2.86621 3.35368,-6.49889 3.35371,-10.88249 l 0,-38.51209 -18.40008,0 z m -29.45826,7.33863 c 2.63943,3e-5 4.88008,1.1012 6.70742,3.29297 1.86789,2.13562 2.78717,4.75595 2.7872,7.90313 -3e-5,3.14722 -0.91931,5.83679 -2.7872,8.02858 -1.82734,2.13561 -4.10007,3.1989 -6.82073,3.19889 -2.72068,10e-6 -5.02079,-1.06328 -6.8887,-3.19889 -1.82732,-2.19179 -2.74189,-4.88136 -2.74188,-8.02858 -1e-5,-3.20338 0.94193,-5.8616 2.80986,-7.99722 1.86792,-2.13557 4.17273,-3.19885 6.93403,-3.19888 z m 73.05648,0 c 2.63944,3e-5 4.85742,1.1012 6.68476,3.29297 1.8679,2.13562 2.80984,4.75595 2.80987,7.90313 -3e-5,3.14722 -0.94197,5.83679 -2.80987,8.02858 -1.82734,2.13561 -4.10006,3.1989 -6.82072,3.19889 -2.72069,10e-6 -5.02079,-1.06328 -6.8887,-3.19889 -1.82732,-2.19179 -2.74189,-4.88136 -2.74188,-8.02858 -1e-5,-3.20338 0.94193,-5.8616 2.80986,-7.99722 1.86791,-2.13557 4.19539,-3.19885 6.95668,-3.19888 z"
       id="text3046" />
    <path
       style="font-size:84px;font-style:normal;font-variant:normal;font-weight:bold;font-stretch:normal;text-align:start;line-height:125%;writing-mode:lr-tb;text-anchor:start;fill:#000000;fill-opacity:1;stroke:none;font-family:FreeMono;-inkscape-font-specification:FreeMono Bold"
       d="m 57.31088,324.05892 c -1.299433,4e-5 -2.300833,0.29133 -2.991146,0.90949 -0.69032,0.56204 -1.042369,1.6632 -1.042369,3.29297 0,2.81003 1.353441,4.23385 4.033515,4.23382 l 23.385328,0 c 2.680031,3e-5 4.01082,-1.42379 4.010856,-4.23382 -3.6e-5,-2.80996 -1.330825,-4.20242 -4.010856,-4.20246 l -23.385328,0 z m 0,15.49265 c -1.299433,2e-5 -2.300833,0.32267 -2.991146,0.94085 -0.69032,0.56202 -1.042369,1.66319 -1.042369,3.29297 0,2.81002 1.353441,4.20247 4.033515,4.20246 l 23.385328,0 c 2.680031,1e-5 4.01082,-1.39244 4.010856,-4.20246 -3.6e-5,-2.80998 -1.330825,-4.2338 -4.010856,-4.23382 l -23.385328,0 z"
       id="text3046-2" />
  </g>
</svg>
