<?xml version="1.0" encoding="UTF-8" standalone="no"?>
<!-- Created with Inkscape (http://www.inkscape.org/) -->

<svg
   xmlns:dc="http://purl.org/dc/elements/1.1/"
   xmlns:cc="http://creativecommons.org/ns#"
   xmlns:rdf="http://www.w3.org/1999/02/22-rdf-syntax-ns#"
   xmlns:svg="http://www.w3.org/2000/svg"
   xmlns="http://www.w3.org/2000/svg"
   xmlns:sodipodi="http://sodipodi.sourceforge.net/DTD/sodipodi-0.dtd"
   xmlns:inkscape="http://www.inkscape.org/namespaces/inkscape"
   id="svg2"
   version="1.1"
   inkscape:version="0.47 r22583"
   width="87.874992"
   height="90.893715"
   xml:space="preserve"
   sodipodi:docname="amc-auto-assoc.svg"><metadata
     id="metadata8"><rdf:RDF><cc:Work
         rdf:about=""><dc:format>image/svg+xml</dc:format><dc:type
           rdf:resource="http://purl.org/dc/dcmitype/StillImage" /><dc:title></dc:title></cc:Work></rdf:RDF></metadata><defs
     id="defs6"><inkscape:perspective
       sodipodi:type="inkscape:persp3d"
       inkscape:vp_x="0 : 0.5 : 1"
       inkscape:vp_y="0 : 1000 : 0"
       inkscape:vp_z="1 : 0.5 : 1"
       inkscape:persp3d-origin="0.5 : 0.33333333 : 1"
       id="perspective10" /><inkscape:perspective
       id="perspective2834"
       inkscape:persp3d-origin="0.5 : 0.33333333 : 1"
       inkscape:vp_z="1 : 0.5 : 1"
       inkscape:vp_y="0 : 1000 : 0"
       inkscape:vp_x="0 : 0.5 : 1"
       sodipodi:type="inkscape:persp3d" /><inkscape:perspective
       id="perspective2863"
       inkscape:persp3d-origin="0.5 : 0.33333333 : 1"
       inkscape:vp_z="1 : 0.5 : 1"
       inkscape:vp_y="0 : 1000 : 0"
       inkscape:vp_x="0 : 0.5 : 1"
       sodipodi:type="inkscape:persp3d" /><inkscape:perspective
       id="perspective2889"
       inkscape:persp3d-origin="0.5 : 0.33333333 : 1"
       inkscape:vp_z="1 : 0.5 : 1"
       inkscape:vp_y="0 : 1000 : 0"
       inkscape:vp_x="0 : 0.5 : 1"
       sodipodi:type="inkscape:persp3d" /><inkscape:perspective
       id="perspective2915"
       inkscape:persp3d-origin="0.5 : 0.33333333 : 1"
       inkscape:vp_z="1 : 0.5 : 1"
       inkscape:vp_y="0 : 1000 : 0"
       inkscape:vp_x="0 : 0.5 : 1"
       sodipodi:type="inkscape:persp3d" /><inkscape:perspective
       id="perspective2941"
       inkscape:persp3d-origin="0.5 : 0.33333333 : 1"
       inkscape:vp_z="1 : 0.5 : 1"
       inkscape:vp_y="0 : 1000 : 0"
       inkscape:vp_x="0 : 0.5 : 1"
       sodipodi:type="inkscape:persp3d" /><inkscape:perspective
       id="perspective2967"
       inkscape:persp3d-origin="0.5 : 0.33333333 : 1"
       inkscape:vp_z="1 : 0.5 : 1"
       inkscape:vp_y="0 : 1000 : 0"
       inkscape:vp_x="0 : 0.5 : 1"
       sodipodi:type="inkscape:persp3d" /></defs><sodipodi:namedview
     pagecolor="#ffffff"
     bordercolor="#666666"
     borderopacity="1"
     objecttolerance="10"
     gridtolerance="10"
     guidetolerance="10"
     inkscape:pageopacity="0"
     inkscape:pageshadow="2"
     inkscape:window-width="1011"
     inkscape:window-height="899"
     id="namedview4"
     showgrid="false"
     inkscape:zoom="2.535646"
     inkscape:cx="85.095719"
     inkscape:cy="30.130031"
     inkscape:window-x="110"
     inkscape:window-y="30"
     inkscape:window-maximized="0"
     inkscape:current-layer="g12" /><g
     id="g12"
     inkscape:groupmode="layer"
     inkscape:label="codes-barres"
     transform="matrix(1.25,0,0,-1.25,-88.431092,942.71636)"><path
       style="fill:#000000;fill-opacity:1;fill-rule:nonzero;stroke:none"
       d="m 84.444874,754.17309 c 0.01785,-0.004 0.01738,-0.0363 0.025,-0.0402 -0.162752,-0.031 -0.838496,-0.0402 -2.025,-0.0402 -0.43,0 -0.65,-0.37338 -0.65,-1.10433 l -0.025,-45.1573 4.15,0 0,45.1573 c 0,0.67622 -0.499,1.07342 -1.475,1.18465 z m 18.549996,0 c -0.418,0 -0.625,-0.39896 -0.625,-1.18465 l 0,-45.1573 1.925,0 0,45.1573 c 0,0.78569 -0.285,1.18465 -0.875,1.18465 l -0.425,0 z m 18.425,0 c 0.0178,-0.004 0.0166,-0.0363 0.025,-0.0402 -0.13608,-0.031 -0.75025,-0.0402 -1.825,-0.0402 l -0.425,0 c -0.43,0 -0.65,-0.37338 -0.65,-1.10433 l 0,-5.56184 c -0.024,-2.52303 -0.025,-4.36875 -0.025,-5.52168 l 0.025,-34.07378 4.075,0 c 7.6e-4,0.73224 0.0188,1.82197 0.05,3.31301 l 0,3.29293 0,38.55136 c 0,0.67622 -0.418,1.07342 -1.25,1.18465 z m 16.05,0 c -0.836,0 -1.25,-0.39896 -1.25,-1.18465 l -0.05,-39.41475 0,-2.93151 c 0.0254,-1.24638 0.0479,-2.13806 0.05,-2.81104 l 1.875,0 0,3.25277 0,3.37325 0,38.53128 c 0,0.78569 -0.211,1.18465 -0.625,1.18465 z m -66.049996,-0.0803 c -0.418,0 -0.625,-0.37338 -0.625,-1.10433 l 0,-3.41341 c 0.027,-1.49016 0.025,-2.60763 0.025,-3.39332 0,-2.89027 0.002,-8.32463 -0.025,-16.28393 -0.031,-3.64243 -0.05,-9.10281 -0.05,-16.32409 l 0.05,-5.74255 1.9,0 c 0.03864,0.20858 0.05,0.43953 0.05,0.70276 0,0.19951 -0.023,0.56583 -0.05,1.10434 l 0,1.28504 0,42.06516 c 0,0.73095 -0.412,1.10433 -1.275,1.10433 z m 2.95,0 c -0.43,0 -0.625,-0.37338 -0.625,-1.10433 0,-1.47604 -0.031,-3.73812 -0.05,-6.80673 l 0,-6.88704 0,-31.46353 1.925,0 0,3.31301 c 0.027,1.48309 0.05,2.57499 0.05,3.31301 l -0.05,38.53128 c 0,0.73095 -0.418,1.10433 -1.25,1.10433 z m 2.925,0 c -0.387,0 -0.6,-0.37338 -0.6,-1.10433 l -0.025,-45.1573 1.9,0 0,45.1573 c 0,0.73095 -0.412,1.10433 -1.275,1.10433 z m 13.15,0 c -0.867,0 -1.275,-0.37338 -1.275,-1.10433 l 0,-45.1573 1.9,0 0,45.1573 c 0,0.73095 -0.211,1.10433 -0.625,1.10433 z m 2.3,0 c -0.45,0 -0.675,-0.37338 -0.675,-1.10433 l 0,-45.1573 1.975,0 -0.05,45.1573 c 0,0.73095 -0.418,1.10433 -1.25,1.10433 z m 2.925,0 c -0.387,0 -0.6,-0.3478 -0.6,-1.02402 0,-0.68329 0.002,-1.67461 -0.025,-2.99174 l 0,-2.87128 0,-33.63204 0.025,-5.74255 4.125,0 -0.025,45.1573 c 0,0.73095 -0.224,1.10433 -0.65,1.10433 l -2.85,0 z m 13.124996,0 c -0.867,0 -1.3,-0.37338 -1.3,-1.10433 l 0.05,-45.1573 1.875,0 c 5.3e-4,0.76381 0.002,1.84111 0.025,3.31301 l 0,3.31301 0,26.82532 0,5.86302 0,5.84294 c 0,0.73095 -0.205,1.10433 -0.65,1.10433 z m 2.325,0 c -0.36226,0 -0.5823,-0.48727 -0.675,-1.38544 0.0291,0.12869 0.05,-0.92884 0.05,-3.1323 l -0.05,-41.74389 1.925,0 0,2.50985 c 0.027,1.15294 0.05,2.03821 0.05,2.61025 l -0.05,40.0372 c 0,0.73095 -0.418,1.10433 -1.25,1.10433 z m 5.775,0 c -0.867,0 -1.3,-0.37338 -1.3,-1.10433 l 0,-45.1573 1.95,0 0.025,45.1573 c 0,0.73095 -0.229,1.10433 -0.675,1.10433 z m 9.65,0 c -0.418,0 -0.625,-0.37338 -0.625,-1.10433 l 0,-6.28468 c -0.031,-2.77905 -0.05,-4.83249 -0.05,-6.20436 l 0,-7.95122 c 0,-1.67554 0.019,-4.84847 0.05,-9.49728 0.027,-4.0132 0.027,-7.16605 0,-9.47721 l 0,-5.74255 4.125,0 0,45.1573 c 0,0.73095 -0.493,1.10433 -1.45,1.10433 l -2.05,0 z m 7.35,0 c -0.429,0 -0.65,-0.37338 -0.65,-1.10433 l 0,-39.41475 0,-3.01183 0,-2.73072 1.9,0 c 8.1e-4,0.73224 0.0198,1.82197 0.05,3.31301 l 0,3.31301 -0.05,38.53128 c 0,0.73095 -0.418,1.10433 -1.25,1.10433 z m 6.475,0 c -0.899,0 -1.325,-0.62127 -1.325,-1.82717 0,-0.20657 -0.006,-0.62451 0.025,-1.22481 0.027,-0.60737 0.05,-1.10028 0.05,-1.46576 l 0,-41.74389 1.925,0 0,13.59337 0,12.79022 c -0.032,4.37338 -0.05,8.65671 -0.05,12.89061 l 0.05,5.8831 c 0,0.73095 -0.23,1.10433 -0.675,1.10433 z"
       id="path16" /><path
       style="fill:#000000;fill-opacity:1;fill-rule:nonzero;stroke:none"
       d="m 78.141159,702.196 c -0.415901,-0.0612 -0.725363,-0.0986 -0.886992,-0.0986 -3.534166,0 -5.272669,-3.32129 -5.272669,-9.90473 0,-2.95663 0.222733,-5.14454 0.73916,-6.55388 0.877134,-2.34165 2.588042,-3.49868 5.07556,-3.49868 0.161628,0 0.382392,0.0453 0.689881,0.0986 l 0.689881,0 c 3.997379,0 6.011836,3.30158 6.011836,9.95401 0,5.92905 -1.375815,9.205 -4.1393,9.80619 -0.477001,0.11437 -1.117601,0.19711 -1.872536,0.19711 l -1.034821,0 z m -0.985545,-3.84364 2.660966,0 c 0.938242,0 1.429057,-1.56306 1.429057,-4.68133 0,-5.05192 -0.490815,-7.53943 -1.429057,-7.53943 l -2.660966,-0.0986 c -0.946125,0 -1.429043,1.93562 -1.429043,5.81472 l 0,1.47831 c 0,3.34101 0.482918,5.02629 1.429043,5.02629 z"
       id="path16-6-4" /><path
       style="fill:#000000;fill-opacity:1;fill-rule:nonzero;stroke:none"
       d="m 99.00737,702.1116 c -0.7017,0 -1.908016,-0.74507 -3.646511,-2.21747 -1.724709,-1.47832 -2.611698,-2.523 -2.611698,-3.15375 0,-1.35413 0.565708,-2.06964 1.67543,-2.06964 0.754921,0 1.762148,0.7017 3.055191,2.11892 -0.106455,-0.88501 -0.147826,-2.21551 -0.147826,-4.04074 0,-1.1314 0.03739,-2.28647 0.09853,-3.4494 l 0,-2.46388 c 0,-3.06307 0.640594,-4.58277 1.872524,-4.58277 1.34627,0 2.0204,0.62679 2.0204,1.92181 l 0,3.00591 0,3.00591 0,5.12484 c -0.0612,2.29434 -0.0986,4.01708 -0.0986,5.12484 0,1.12352 -0.74704,1.67542 -2.2175,1.67542 z"
       id="path16-6-7" /><path
       style="fill:#000000;fill-opacity:1;fill-rule:nonzero;stroke:none"
       d="m 115.31545,702.25192 c -1.04862,0 -2.26085,-0.27989 -3.54796,-0.78843 -1.60052,-0.60118 -2.36532,-1.32655 -2.36532,-2.26676 0,-1.29303 0.59132,-1.97109 1.82326,-1.97109 0.29961,0 0.84165,0.22471 1.62615,0.64061 0.79239,0.40801 1.54336,0.59134 2.26677,0.59134 1.76411,0 2.66096,-0.6347 2.66096,-1.92182 0,-0.59922 -0.39421,-1.27727 -1.23192,-1.9711 -1.58675,-1.17083 -3.14981,-2.31209 -4.68136,-3.49868 -1.58672,-1.46256 -2.41457,-3.2523 -2.41457,-5.32196 0,-1.4645 0.25821,-2.37319 0.68988,-2.75952 0.44546,-0.38437 1.41721,-0.59132 2.95662,-0.59132 l 6.45533,0 c 1.34626,0 2.02036,0.62877 2.02036,1.92182 0,1.34625 -1.26543,2.06963 -3.74507,2.06963 -0.35282,0 -1.01905,-0.0966 -2.02036,-0.19711 -0.88502,-0.0612 -1.52563,-0.0612 -1.97109,0 l -0.59132,0 c 0.0552,0.87714 0.50656,1.71485 1.33048,2.41459 1.47043,1.00131 2.99408,1.99869 4.53351,3.00591 1.51773,1.22405 2.26675,2.87188 2.26675,4.92774 0,1.76411 -0.57753,3.15768 -1.7247,4.18857 -1.15506,1.02496 -2.57425,1.52758 -4.3364,1.52758 z"
       id="path16-6-2" /><path
       style="fill:#000000;fill-opacity:1;fill-rule:nonzero;stroke:none"
       d="m 130.16985,701.21837 c -0.4955,-0.0178 -0.76774,-0.072 -0.88699,-0.0986 -1.23194,-0.24639 -1.82326,-0.84561 -1.82326,-1.82328 0,-1.07029 0.77857,-1.74833 2.3653,-1.97107 0.2385,-0.0631 1.43102,-0.0986 3.54797,-0.0986 0.28385,0 0.5795,0.0355 0.88699,0.0986 -1.26898,-1.15189 -2.33842,-2.21598 -3.20301,-3.20304 -0.23063,-0.29369 -0.34495,-0.74901 -0.34495,-1.37976 0,-1.0703 0.98554,-1.78187 2.95664,-2.1682 1.9632,-0.36859 2.95664,-1.22799 2.95664,-2.51314 0,-0.84758 -0.35284,-1.53943 -1.0841,-2.06964 -0.73917,-0.51643 -1.62222,-0.73916 -2.56243,-0.73916 -0.4159,0 -1.00723,0.10044 -1.82326,0.39421 -0.82391,0.28384 -1.46452,0.4435 -1.87253,0.4435 -1.29303,0 -1.92182,-0.59922 -1.92182,-1.82326 0,-1.87056 1.86071,-2.80881 5.61761,-2.80881 1.94942,0 3.69777,0.59133 5.22339,1.82326 1.53154,1.22405 2.31603,2.82261 2.31603,4.7799 0,3.0552 -1.49999,5.07556 -4.43495,6.0611 2.45795,2.06964 3.69581,3.54797 3.69581,4.43496 0,1.70105 -0.59922,2.56243 -1.82328,2.56243 l -2.85808,0 c -1.29303,0.0532 -2.22732,0.0986 -2.85807,0.0986 -0.85545,0 -1.57417,0.0178 -2.06965,0 z"
       id="path16-6-1" /></g></svg>